# xmcd
#
# Track frame offsets: 
#        150
#        48932
#        79225
#        105402
#        123579
#        142625
#        159365
#
# Disc length: 2299 seconds
#
# Revision: 1
# Processed by: cddbd v1.5.1PL2 Copyright (c) Steve Scherf et al.
# Submitted via: ExactAudioCopy v0.95a4
#
DISCID=4b08f907
DTITLE=Les Luthiers - Cantata Laxatón
DYEAR=1972
DGENRE=Comedy
TTITLE0=Cantata Laxatón (1-10)
TTITLE1=Cantata Laxatón (11-15)
TTITLE2=Bolero de Mastropiero
TTITLE3=Tristezas del Manuela
TTITLE4=Pieza en forma de Tango
TTITLE5=Si no fuera Santiagueño
TTITLE6=Vals del Segundo
EXTD=
EXTT0=
EXTT1=
EXTT2=
EXTT3=
EXTT4=
EXTT5=
EXTT6=
PLAYORDER=
